<svg xmlns="http://www.w3.org/2000/svg" xmlns:xlink="http://www.w3.org/1999/xlink" version="1.1" width="256" height="256" viewBox="0 0 256 256" xml:space="preserve">
<g style="stroke: none; stroke-width: 0; stroke-dasharray: none; stroke-linecap: butt; stroke-linejoin: miter; stroke-miterlimit: 10; fill: none; fill-rule: nonzero; opacity: 1;" transform="translate(1.4065934065934016 1.4065934065934016) scale(2.81 2.81)">
	<circle cx="45" cy="45" r="45" style="stroke: none; stroke-width: 1; stroke-dasharray: none; stroke-linecap: butt; stroke-linejoin: miter; stroke-miterlimit: 10; fill: rgb(115,214,0); fill-rule: nonzero; opacity: 1;" transform="  matrix(1 0 0 1 0 0) "/>
	<path d="M 72.371 33.419 L 58.928 19.976 c -0.724 -0.724 -1.687 -1.123 -2.711 -1.123 H 20.337 c -2.114 0 -3.834 1.72 -3.834 3.833 v 32.546 v 14.128 c 4.358 5.092 10.053 9 16.545 11.182 c 3.809 1.034 7.815 1.59 11.952 1.59 c 4.137 0 8.143 -0.556 11.952 -1.59 c 6.49 -2.182 12.185 -6.088 16.542 -11.178 V 36.129 C 73.494 35.106 73.095 34.144 72.371 33.419 z" style="stroke: none; stroke-width: 1; stroke-dasharray: none; stroke-linecap: butt; stroke-linejoin: miter; stroke-miterlimit: 10; fill: rgb(255,255,255); fill-rule: nonzero; opacity: 1;" transform=" matrix(1 0 0 1 0 0) " stroke-linecap="round"/>
	<path d="M 72.371 33.419 L 58.928 19.976 c -0.569 -0.57 -1.289 -0.929 -2.068 -1.06 v 12.966 c 0 1.988 1.618 3.605 3.605 3.605 h 12.966 C 73.3 34.708 72.941 33.988 72.371 33.419 z" style="stroke: none; stroke-width: 1; stroke-dasharray: none; stroke-linecap: butt; stroke-linejoin: miter; stroke-miterlimit: 10; fill: rgb(226,226,226); fill-rule: nonzero; opacity: 1;" transform=" matrix(1 0 0 1 0 0) " stroke-linecap="round"/>
	<path d="M 25.921 50.849 H 38.03 c 1.076 0 1.948 -0.872 1.948 -1.948 v -2.72 c 0 -3.69 -2.502 -6.789 -5.899 -7.714 c 1.377 -0.75 2.323 -2.193 2.323 -3.872 v -2.582 c 0 -2.444 -1.982 -4.426 -4.426 -4.426 s -4.426 1.982 -4.426 4.426 v 2.582 c 0 1.679 0.946 3.122 2.323 3.872 c -3.397 0.925 -5.899 4.023 -5.899 7.714 v 2.72 C 23.974 49.977 24.846 50.849 25.921 50.849 z" style="stroke: none; stroke-width: 1; stroke-dasharray: none; stroke-linecap: butt; stroke-linejoin: miter; stroke-miterlimit: 10; fill: rgb(115,214,0); fill-rule: nonzero; opacity: 1;" transform=" matrix(1 0 0 1 0 0) " stroke-linecap="round"/>
	<path d="M 47.575 51.053 h 18.451 c 0.553 0 1 -0.447 1 -1 s -0.447 -1 -1 -1 H 47.575 c -0.553 0 -1 0.447 -1 1 S 47.022 51.053 47.575 51.053 z" style="stroke: none; stroke-width: 1; stroke-dasharray: none; stroke-linecap: butt; stroke-linejoin: miter; stroke-miterlimit: 10; fill: rgb(115,214,0); fill-rule: nonzero; opacity: 1;" transform=" matrix(1 0 0 1 0 0) " stroke-linecap="round"/>
	<path d="M 66.026 67.62 H 33.551 c -0.552 0 -1 0.447 -1 1 s 0.448 1 1 1 h 32.475 c 0.553 0 1 -0.447 1 -1 S 66.579 67.62 66.026 67.62 z" style="stroke: none; stroke-width: 1; stroke-dasharray: none; stroke-linecap: butt; stroke-linejoin: miter; stroke-miterlimit: 10; fill: rgb(115,214,0); fill-rule: nonzero; opacity: 1;" transform=" matrix(1 0 0 1 0 0) " stroke-linecap="round"/>
	<path d="M 26.684 67.62 h -1.697 c -0.552 0 -1 0.447 -1 1 s 0.448 1 1 1 h 1.697 c 0.552 0 1 -0.447 1 -1 S 27.236 67.62 26.684 67.62 z" style="stroke: none; stroke-width: 1; stroke-dasharray: none; stroke-linecap: butt; stroke-linejoin: miter; stroke-miterlimit: 10; fill: rgb(115,214,0); fill-rule: nonzero; opacity: 1;" transform=" matrix(1 0 0 1 0 0) " stroke-linecap="round"/>
	<path d="M 66.026 59.191 H 33.551 c -0.552 0 -1 0.447 -1 1 s 0.448 1 1 1 h 32.475 c 0.553 0 1 -0.447 1 -1 S 66.579 59.191 66.026 59.191 z" style="stroke: none; stroke-width: 1; stroke-dasharray: none; stroke-linecap: butt; stroke-linejoin: miter; stroke-miterlimit: 10; fill: rgb(115,214,0); fill-rule: nonzero; opacity: 1;" transform=" matrix(1 0 0 1 0 0) " stroke-linecap="round"/>
	<path d="M 26.684 59.191 h -1.697 c -0.552 0 -1 0.447 -1 1 s 0.448 1 1 1 h 1.697 c 0.552 0 1 -0.447 1 -1 S 27.236 59.191 26.684 59.191 z" style="stroke: none; stroke-width: 1; stroke-dasharray: none; stroke-linecap: butt; stroke-linejoin: miter; stroke-miterlimit: 10; fill: rgb(115,214,0); fill-rule: nonzero; opacity: 1;" transform=" matrix(1 0 0 1 0 0) " stroke-linecap="round"/>
	<path d="M 47.575 42.624 h 9.18 c 0.553 0 1 -0.448 1 -1 s -0.447 -1 -1 -1 h -9.18 c -0.553 0 -1 0.448 -1 1 S 47.022 42.624 47.575 42.624 z" style="stroke: none; stroke-width: 1; stroke-dasharray: none; stroke-linecap: butt; stroke-linejoin: miter; stroke-miterlimit: 10; fill: rgb(115,214,0); fill-rule: nonzero; opacity: 1;" transform=" matrix(1 0 0 1 0 0) " stroke-linecap="round"/>
</g>
</svg>